# xmcd
#
# Track frame offsets: 
#        150
#        14205
#        24662
#        36342
#        45742
#        56845
#        67745
#        77701
#        91942
#        102840
#        116174
#        128009
#
# Disc length: 1880 seconds
#
# Revision: 2
# Processed by: cddbd v1.5.2PL0 Copyright (c) Steve Scherf et al.
# Submitted via: ExactAudioCopyFreeDBPlugin 1.0
#
DISCID=9f07560c
DTITLE=Ben E. King - 1960 - Spanish Harlem
DYEAR=1960
DGENRE=Soul
TTITLE0=Amor
TTITLE1=Sway
TTITLE2=Come Closer To Me
TTITLE3=Perfidia
TTITLE4=Granada
TTITLE5=Sweet And Gentle
TTITLE6=Quizas, Quizas, Quizas (Perhaps, Perhaps, Perhaps)
TTITLE7=Frenesi
TTITLE8=Souvenir Of Mexico
TTITLE9=Besame Mucho
TTITLE10=Love Me, Love Me
TTITLE11=Spanish Harlem
EXTD=
EXTT0=
EXTT1=
EXTT2=
EXTT3=
EXTT4=
EXTT5=
EXTT6=
EXTT7=
EXTT8=
EXTT9=
EXTT10=
EXTT11=
PLAYORDER=
